<mxfile host="app.diagrams.net" agent="Mozilla/5.0 (Macintosh; Intel Mac OS X 10_15_7) AppleWebKit/537.36 (KHTML, like Gecko) Chrome/134.0.0.0 Safari/537.36" version="26.2.14">
  <diagram name="第 1 页" id="HmteNyJ8tClewV1FlfIS">
    <mxGraphModel dx="1773" dy="511" grid="1" gridSize="10" guides="1" tooltips="1" connect="1" arrows="1" fold="1" page="1" pageScale="1" pageWidth="827" pageHeight="1169" math="0" shadow="0">
      <root>
        <mxCell id="0" />
        <mxCell id="1" parent="0" />
        <mxCell id="ikWfeAi_N5jJVHAKg0Ye-1" value="RichAssetsDeployBucket" style="outlineConnect=0;dashed=0;verticalLabelPosition=bottom;verticalAlign=top;align=center;html=1;shape=mxgraph.aws3.bucket_with_objects;fillColor=#E05243;gradientColor=none;" vertex="1" parent="1">
          <mxGeometry x="320" y="130" width="60" height="61.5" as="geometry" />
        </mxCell>
        <mxCell id="ikWfeAi_N5jJVHAKg0Ye-3" value="HTML" style="sketch=0;aspect=fixed;pointerEvents=1;shadow=0;dashed=0;html=1;strokeColor=none;labelPosition=center;verticalLabelPosition=bottom;verticalAlign=top;align=center;fillColor=#00188D;shape=mxgraph.azure.script_file" vertex="1" parent="1">
          <mxGeometry x="520" y="100" width="47" height="50" as="geometry" />
        </mxCell>
        <mxCell id="ikWfeAi_N5jJVHAKg0Ye-4" value="Bundle.js" style="sketch=0;aspect=fixed;pointerEvents=1;shadow=0;dashed=0;html=1;strokeColor=none;labelPosition=center;verticalLabelPosition=bottom;verticalAlign=top;align=center;fillColor=#00188D;shape=mxgraph.azure.script_file" vertex="1" parent="1">
          <mxGeometry x="520" y="200" width="47" height="50" as="geometry" />
        </mxCell>
        <mxCell id="ikWfeAi_N5jJVHAKg0Ye-5" value="RichRenderingLambda" style="outlineConnect=0;dashed=0;verticalLabelPosition=bottom;verticalAlign=top;align=center;html=1;shape=mxgraph.aws3.lambda_function;fillColor=#F58534;gradientColor=none;" vertex="1" parent="1">
          <mxGeometry x="140" y="124.75" width="69" height="72" as="geometry" />
        </mxCell>
        <mxCell id="ikWfeAi_N5jJVHAKg0Ye-7" style="edgeStyle=orthogonalEdgeStyle;rounded=0;orthogonalLoop=1;jettySize=auto;html=1;entryX=0.06;entryY=0.5;entryDx=0;entryDy=0;entryPerimeter=0;" edge="1" parent="1" source="ikWfeAi_N5jJVHAKg0Ye-5" target="ikWfeAi_N5jJVHAKg0Ye-1">
          <mxGeometry relative="1" as="geometry" />
        </mxCell>
        <mxCell id="ikWfeAi_N5jJVHAKg0Ye-8" style="edgeStyle=orthogonalEdgeStyle;rounded=0;orthogonalLoop=1;jettySize=auto;html=1;entryX=0;entryY=0.5;entryDx=0;entryDy=0;entryPerimeter=0;" edge="1" parent="1" source="ikWfeAi_N5jJVHAKg0Ye-1" target="ikWfeAi_N5jJVHAKg0Ye-3">
          <mxGeometry relative="1" as="geometry" />
        </mxCell>
        <mxCell id="ikWfeAi_N5jJVHAKg0Ye-9" style="edgeStyle=orthogonalEdgeStyle;rounded=0;orthogonalLoop=1;jettySize=auto;html=1;entryX=0;entryY=0.5;entryDx=0;entryDy=0;entryPerimeter=0;" edge="1" parent="1" source="ikWfeAi_N5jJVHAKg0Ye-1" target="ikWfeAi_N5jJVHAKg0Ye-4">
          <mxGeometry relative="1" as="geometry" />
        </mxCell>
        <mxCell id="ikWfeAi_N5jJVHAKg0Ye-10" value="API Gateway" style="outlineConnect=0;dashed=0;verticalLabelPosition=bottom;verticalAlign=top;align=center;html=1;shape=mxgraph.aws3.api_gateway;fillColor=#D9A741;gradientColor=none;" vertex="1" parent="1">
          <mxGeometry x="-40" y="114.25" width="76.5" height="93" as="geometry" />
        </mxCell>
        <mxCell id="ikWfeAi_N5jJVHAKg0Ye-11" style="edgeStyle=orthogonalEdgeStyle;rounded=0;orthogonalLoop=1;jettySize=auto;html=1;entryX=0;entryY=0.5;entryDx=0;entryDy=0;entryPerimeter=0;" edge="1" parent="1" source="ikWfeAi_N5jJVHAKg0Ye-10" target="ikWfeAi_N5jJVHAKg0Ye-5">
          <mxGeometry relative="1" as="geometry" />
        </mxCell>
      </root>
    </mxGraphModel>
  </diagram>
</mxfile>
